<?xml version="1.0" encoding="utf-8"?>
<!-- Generator: Adobe Illustrator 16.0.0, SVG Export Plug-In . SVG Version: 6.00 Build 0)  -->
<!DOCTYPE svg PUBLIC "-//W3C//DTD SVG 1.1//EN" "http://www.w3.org/Graphics/SVG/1.1/DTD/svg11.dtd">
<svg version="1.1" xmlns="http://www.w3.org/2000/svg" xmlns:xlink="http://www.w3.org/1999/xlink" x="0px" y="0px"
	 width="308.333px" height="158px" viewBox="0 0 308.333 158" enable-background="new 0 0 308.333 158" xml:space="preserve">
<g id="Layer_1" display="none">
</g>
<g id="Layer_2">
	<g>
		<polygon fill="#F69F00" points="285,136 28,136 51.333,0 308.333,0 		"/>
		<polygon opacity="0.4" fill="#F69F00" points="271,147 14,147 37.333,11 294.333,11 		"/>
		<polygon opacity="0.3" fill="#F69F00" points="257,158 0,158 23.333,22 280.333,22 		"/>
		<g>
			<path fill="#F9FCF8" d="M74.954,59.243l4.585-21.69h5.801l-3.576,16.958h7.077l-1.009,4.732H74.954z"/>
			<path fill="#F9FCF8" d="M103.202,55.178h-6.646l-1.854,4.065h-6.023l11.038-21.69h7.462l1.825,21.69h-5.652L103.202,55.178z
				 M98.677,50.549h4.347l-0.252-6.29l-0.029-1.275c0-0.742,0.02-1.39,0.06-1.944c-0.237,0.852-0.54,1.672-0.905,2.463
				L98.677,50.549z"/>
			<path fill="#F9FCF8" d="M125.501,52.582c0,2.195-0.728,3.904-2.182,5.126c-1.453,1.222-3.481,1.832-6.082,1.832
				c-1.089,0-2.117-0.121-3.086-0.363c-0.97-0.242-1.806-0.596-2.508-1.062v-5.192c0.831,0.524,1.783,0.965,2.856,1.32
				c1.073,0.356,2.045,0.534,2.915,0.534c0.731,0,1.285-0.153,1.661-0.46s0.564-0.741,0.564-1.306c0-0.267-0.06-0.517-0.179-0.749
				c-0.118-0.232-0.286-0.465-0.504-0.697s-0.801-0.744-1.751-1.535c-1.157-0.93-1.998-1.879-2.521-2.849
				c-0.524-0.97-0.787-2.032-0.787-3.189c0-1.296,0.324-2.461,0.973-3.494c0.647-1.033,1.563-1.835,2.744-2.403
				c1.182-0.569,2.505-0.854,3.969-0.854c2.363,0,4.49,0.529,6.38,1.588l-2.003,4.406c-1.691-0.87-3.131-1.306-4.317-1.306
				c-0.634,0-1.12,0.139-1.462,0.415c-0.341,0.277-0.512,0.683-0.512,1.217c0,0.484,0.166,0.938,0.497,1.357
				c0.331,0.421,0.962,0.981,1.892,1.684c1.167,0.861,2.032,1.766,2.597,2.716C125.219,50.268,125.501,51.355,125.501,52.582z"/>
			<path fill="#F9FCF8" d="M136.954,59.243h-5.801l3.517-16.898h-4.703l1.023-4.792h15.252l-1.054,4.792h-4.718L136.954,59.243z"/>
			<path fill="#F9FCF8" d="M161.033,59.243V43.681h-0.119c-0.662,4.124-1.088,6.656-1.275,7.596l-1.677,7.967h-5.163l4.585-21.69
				h7.685v15.4h0.119l7.092-15.4h7.804l-4.645,21.69h-5.207l1.735-8.145c0.495-2.256,1.029-4.411,1.603-6.469l0.223-0.949h-0.118
				l-7.151,15.563H161.033z"/>
			<path fill="#F9FCF8" d="M180.394,59.243l4.584-21.69h5.891l-4.585,21.69H180.394z"/>
			<path fill="#F9FCF8" d="M210.288,59.243h-6.75l-4.288-15.251h-0.118c-0.287,2.878-0.569,4.945-0.846,6.201l-1.914,9.05h-5.163
				l4.585-21.69h6.75l4.243,14.584h0.134c0.286-2.334,0.568-4.169,0.846-5.504l1.943-9.08h5.163L210.288,59.243z"/>
			<path fill="#F9FCF8" d="M236.236,37.553l-2.952,13.827c-0.583,2.779-1.696,4.834-3.338,6.165
				c-1.642,1.33-3.872,1.995-6.691,1.995c-1.325,0-2.494-0.272-3.508-0.816c-1.015-0.544-1.796-1.306-2.345-2.284
				c-0.549-0.979-0.823-2.072-0.823-3.279c0-0.633,0.06-1.271,0.178-1.914l2.953-13.693h5.801l-2.894,13.546
				c-0.139,0.672-0.208,1.241-0.208,1.706c0,1.256,0.599,1.884,1.796,1.884c0.93,0,1.659-0.319,2.188-0.957
				c0.528-0.638,0.932-1.614,1.209-2.93l2.833-13.249H236.236z"/>
			<path fill="#F9FCF8" d="M245.331,59.243h-5.801l3.517-16.898h-4.703l1.023-4.792h15.252l-1.054,4.792h-4.718L245.331,59.243z"/>
			<path fill="#F9FCF8" d="M266.161,59.243h-12.878l4.585-21.69h12.877l-0.964,4.703h-7.077l-0.697,3.412h6.588l-1.068,4.703h-6.588
				l-0.846,4.095h7.077L266.161,59.243z"/>
			<path fill="#F9FCF8" d="M131.273,72.415c3.132,0,5.567,0.894,7.309,2.683c1.74,1.788,2.61,4.284,2.61,7.488
				s-0.6,6.134-1.798,8.789c-1.198,2.656-2.852,4.691-4.959,6.106c-2.107,1.416-4.553,2.123-7.335,2.123
				c-3.24,0-5.742-0.897-7.507-2.691c-1.765-1.795-2.646-4.288-2.646-7.48c0-3.191,0.62-6.124,1.861-8.798
				c1.24-2.674,2.929-4.712,5.067-6.115C126.014,73.116,128.479,72.415,131.273,72.415z M134.057,82.658
				c0-1.373-0.289-2.448-0.867-3.225c-0.578-0.777-1.416-1.165-2.512-1.165c-1.192,0-2.288,0.506-3.288,1.518
				s-1.798,2.402-2.394,4.173c-0.597,1.771-0.895,3.583-0.895,5.438c0,2.914,1.204,4.371,3.613,4.371
				c1.145,0,2.207-0.499,3.188-1.499s1.753-2.349,2.313-4.047C133.776,86.524,134.057,84.67,134.057,82.658z"/>
			<path fill="#F9FCF8" d="M149.991,99.243h-7.064l5.583-26.413h15.573l-1.211,5.728h-8.509l-1.048,5.04h7.877l-1.246,5.763h-7.914
				L149.991,99.243z"/>
			<path fill="#F9FCF8" d="M171.038,99.243h-7.064l5.583-26.413h15.573l-1.211,5.728h-8.509l-1.048,5.04h7.877l-1.246,5.763h-7.914
				L171.038,99.243z"/>
			<path fill="#F9FCF8" d="M200.702,99.243h-15.682l5.583-26.413h15.682l-1.175,5.728h-8.617l-0.85,4.154h8.021l-1.301,5.728h-8.021
				l-1.029,4.986h8.617L200.702,99.243z"/>
			<path fill="#F9FCF8" d="M214.921,89.632l-2.041,9.611h-7.064l5.583-26.413h6.991c3.035,0,5.36,0.603,6.975,1.807
				c1.613,1.204,2.42,3.017,2.42,5.438c0,1.879-0.427,3.517-1.282,4.914c-0.855,1.396-2.126,2.463-3.812,3.197l4.047,9.322
				l0.723,1.734h-7.697l-3.522-9.611H214.921z M216.06,84.267h0.922c1.144,0,2.053-0.328,2.728-0.985
				c0.675-0.656,1.012-1.574,1.012-2.755c0-0.747-0.208-1.315-0.623-1.707c-0.416-0.392-1.021-0.588-1.815-0.588h-0.958
				L216.06,84.267z"/>
		</g>
	</g>
</g>
</svg>
