<?xml version="1.0" encoding="UTF-8"?>
<svg xmlns="http://www.w3.org/2000/svg"
     width="24"
     height="24"
     viewBox="0 0 2048 2048">

  <g fill="#9EA2A5" fill-rule="evenodd">

    <path d="

      M454 742
      C472 600 620 560 760 560
      L1288 560
      C1428 560 1576 600 1594 742
      L1712 1748
      C1732 1900 1592 1988 1440 1988
      L608 1988
      C456 1988 316 1900 336 1748
      Z

      M768 560
      C768 380 900 256 1024 256
      C1148 256 1280 380 1280 560
      L1186 560
      C1186 445 1108 360 1024 360
      C940 360 862 445 862 560
      Z

      M1018 880
      C1105 810 1195 835 1228 910
      C1255 970 1235 1050 1220 1120
      L1115 1570
      C1095 1670 1045 1725 985 1725
      C925 1725 875 1670 895 1570
      L960 1185
      L880 1250
      C820 1295 755 1275 720 1225
      C685 1175 710 1105 785 1055
      Z

    "/>

  </g>

</svg>
